<svg width="90" height="62" viewBox="0 0 90 62" fill="none" xmlns="http://www.w3.org/2000/svg">
<path d="M88.6775 36.1969C90.4282 40.8525 90.2353 45.9404 88.1167 50.6035C85.8981 55.4862 81.939 59.0853 76.9686 60.7381C71.8353 62.445 66.113 61.9805 60.4203 59.3948L50.1404 54.7506C48.6085 54.0587 47.927 52.2576 48.6184 50.7278C49.3096 49.1981 51.1118 48.5188 52.6437 49.2109L62.9294 53.8575C71.2397 57.6322 79.3158 55.2577 82.5744 48.0858C85.8334 40.9136 82.309 33.2702 74.0042 29.4984L59.9181 23.1003C55.6487 21.161 51.4622 20.7776 47.8114 21.9916C44.4651 23.1043 41.7899 25.5487 40.2789 28.8744C39.7727 29.9887 39.4217 31.1433 39.2358 32.3062C38.9709 33.964 37.4107 35.092 35.7512 34.8257C34.0915 34.5594 32.961 32.9995 33.2259 31.3421C33.4976 29.6429 34.0059 27.9656 34.7368 26.3568C36.9553 21.4741 40.9143 17.875 45.8847 16.2222C51.018 14.5154 56.7405 14.9798 62.433 17.5656L76.5191 23.9637C82.2118 26.5495 86.3259 30.5529 88.4173 35.5412C88.508 35.7587 88.595 35.9776 88.6775 36.1969ZM54.5748 27.36C52.9152 27.0937 51.355 28.222 51.0901 29.8795C50.9043 31.0425 50.5533 32.1972 50.0472 33.3113C46.7885 40.4833 38.7124 42.8578 30.4078 39.0856L16.3218 32.6874C8.01726 28.9151 4.49292 21.2718 7.7516 14.1C11.0102 6.92815 19.0863 4.55366 27.3966 8.32837L37.6823 12.9749C39.2142 13.6671 41.0165 12.9879 41.7077 11.4581C42.399 9.92842 41.7173 8.12747 40.1856 7.43529L29.9055 2.79115C24.2129 0.205441 18.4906 -0.25889 13.3574 1.44776C8.38704 3.10058 4.42781 6.69972 2.2093 11.5824C-0.00928541 16.4653 -0.114648 21.8166 1.90893 26.6444C4.0002 31.6328 8.1145 35.6362 13.8071 38.2218L27.8931 44.6201C33.5858 47.2058 39.308 47.6702 44.4413 45.9635C49.4116 44.3107 53.3708 40.7116 55.5895 35.8288C56.3202 34.2202 56.8284 32.543 57.1002 30.8436C57.1863 30.304 57.1249 29.7749 56.9452 29.2972C56.573 28.3076 55.6941 27.5397 54.5748 27.36Z" fill="#84DCC6"/>
</svg>
