<svg width="157" height="144" viewBox="0 0 157 144" fill="none" xmlns="http://www.w3.org/2000/svg">
<path d="M78.0051 56.3065C83.3304 56.3065 87.6628 51.9741 87.6628 46.6488L87.6628 40.4314C87.6628 35.106 83.3301 30.7737 78.0051 30.7737C72.6801 30.7737 68.3474 35.106 68.3474 40.4314L68.3474 46.6488C68.3474 51.9738 72.6798 56.3065 78.0051 56.3065ZM72.9177 40.4314C72.9177 37.6261 75.1998 35.344 78.0051 35.344C80.8103 35.344 83.0924 37.6261 83.0924 40.4314L83.0924 46.6488C83.0924 49.4541 80.8103 51.7362 78.0051 51.7362C75.1998 51.7362 72.9177 49.4541 72.9177 46.6488L72.9177 40.4314Z" fill="#19B4D2"/>
<path d="M44.7633 84.7613C46.0253 84.7613 47.0484 83.7381 47.0484 82.4761L47.0484 74.0515C47.0484 72.7895 46.0253 71.7664 44.7633 71.7664C43.5013 71.7664 42.4781 72.7895 42.4781 74.0515L42.4781 82.4761C42.4781 83.7381 43.5013 84.7613 44.7633 84.7613Z" fill="#19B4D2"/>
<path d="M32.2791 84.7613C33.5411 84.7613 34.5642 83.7381 34.5642 82.4761L34.5642 74.0515C34.5642 72.7895 33.5411 71.7664 32.2791 71.7664C31.0171 71.7664 29.9939 72.7895 29.9939 74.0515L29.9939 82.4761C29.9939 83.7381 31.0171 84.7613 32.2791 84.7613Z" fill="#19B4D2"/>
<path d="M19.7946 71.766C18.5325 71.766 17.5094 72.7891 17.5094 74.0511L17.5094 82.4758C17.5094 83.7378 18.5325 84.7609 19.7946 84.7609C21.0566 84.7609 22.0797 83.7378 22.0797 82.4758L22.0797 74.0511C22.0797 72.7891 21.0566 71.766 19.7946 71.766Z" fill="#19B4D2"/>
<path d="M152.127 64.6546C154.266 64.6546 156.005 62.9152 156.005 60.7772L156.005 53.6085C156.005 51.4705 154.266 49.7311 152.127 49.7311L109.792 49.7311C108.53 49.7311 107.507 50.7542 107.507 52.0162C107.507 53.2782 108.53 54.3014 109.792 54.3014L151.435 54.3014L151.435 60.0843L101.338 60.0843L101.338 34.7075C101.338 31.7697 99.9187 28.9852 97.5403 27.2579L80.2904 14.7401L80.2904 3.1355C80.2904 1.87348 79.2676 0.850342 78.0052 0.850342C76.7432 0.850342 75.7201 1.87348 75.7201 3.1355L75.7201 14.7401L58.4696 27.2585C56.0918 28.9852 54.6723 31.77 54.6723 34.7075L54.6723 49.7311L3.8827 49.7311C1.74471 49.7311 0.00524902 51.4705 0.00524901 53.6085L0.00524901 60.7772C0.00524901 62.9152 1.74471 64.6546 3.8827 64.6546L5.31595 64.6546L5.31595 93.9503C2.23617 94.9616 0.00524901 97.8622 0.00524901 101.276L0.005249 115.44C0.005249 118.853 2.23617 121.754 5.31595 122.765L5.31595 128.539L3.88392 128.539C1.74501 128.539 0.005249 130.279 0.005249 132.418L0.005249 139.273C0.005249 141.41 1.74501 143.149 3.88392 143.149L23.34 143.149C24.6021 143.149 25.6252 142.126 25.6252 140.864C25.6252 139.602 24.6021 138.579 23.34 138.579L4.57556 138.579L4.57556 133.109L31.7817 133.109L31.7817 140.865C31.7817 142.127 32.8049 143.15 34.0669 143.15C34.073 143.15 34.0785 143.149 34.0845 143.149L152.127 143.149C154.265 143.149 156.005 141.41 156.005 139.273L156.005 132.418C156.005 130.279 154.265 128.539 152.127 128.539L150.695 128.539L150.695 122.765C153.775 121.754 156.006 118.853 156.006 115.44L156.006 101.276C156.006 97.8625 153.775 94.9616 150.695 93.9507L150.695 64.6546L152.127 64.6546ZM88.0209 116.505L88.0209 138.579L80.2904 138.579L80.2904 116.501L88.0209 116.505ZM75.7201 138.579L67.9905 138.579L68.0005 116.494L75.7201 116.499L75.7201 138.579ZM105.686 133.109L119.658 133.109L119.658 138.579L105.686 138.579L105.686 133.109ZM61.1545 30.9568L78.0052 18.7288L94.8554 30.9565C96.0531 31.8261 96.7679 33.2286 96.7679 34.7078L96.7679 87.7877L79.8224 87.7877C78.5601 87.7877 77.5372 88.8109 77.5372 90.0729C77.5372 91.3349 78.5601 92.3581 79.8224 92.3581L100.767 92.3581C100.959 92.3581 101.116 92.5147 101.116 92.7072L101.116 138.579L92.5913 138.579L92.5913 116.505C92.5913 113.979 90.5361 111.924 88.01 111.924L68.0005 111.924C65.4744 111.924 63.4193 113.979 63.4193 116.505L63.4193 138.579L56.9574 138.579L54.8944 138.579L54.8944 92.7072C54.8944 92.5147 55.051 92.3581 55.2436 92.3581L69.0749 92.3581C70.3369 92.3581 71.36 91.3349 71.36 90.0729C71.36 88.8109 70.3369 87.7877 69.0749 87.7877L59.2426 87.7877L59.2426 34.7075C59.2426 33.2286 59.9577 31.8261 61.1545 30.9568ZM4.57556 54.3014L54.6723 54.3014L54.6723 60.0843L4.57556 60.0843L4.57556 54.3014ZM4.57556 101.276C4.57556 99.545 5.98383 98.1368 7.71476 98.1368C9.44569 98.1368 10.854 99.545 10.854 101.276L10.854 115.44C10.854 117.171 9.44569 118.579 7.71476 118.579C5.98383 118.579 4.57556 117.171 4.57556 115.44L4.57556 101.276ZM9.88626 128.539L9.88626 122.836C13.083 121.895 15.4243 118.937 15.4243 115.44L15.4243 101.276C15.4243 97.7787 13.083 94.8202 9.88626 93.88L9.88626 64.6553L54.6723 64.6553L54.6723 87.8237C52.2281 88.1083 50.3241 90.1881 50.3241 92.7072L50.3241 128.539L36.352 128.539L36.352 122.803C39.4909 121.827 41.7764 118.895 41.7764 115.44L41.7764 101.276C41.7764 97.0249 38.3179 93.5664 34.0669 93.5664C29.8159 93.5664 26.3574 97.0249 26.3574 101.276L26.3574 115.44C26.3574 118.895 28.6428 121.827 31.7817 122.803L31.7817 128.539L9.88626 128.539ZM34.0669 118.579C32.3359 118.579 30.9277 117.171 30.9277 115.44L30.9277 101.276C30.9277 99.545 32.3359 98.1368 34.0669 98.1368C35.7978 98.1368 37.2061 99.545 37.2061 101.276L37.2061 115.44C37.2061 117.171 35.7978 118.579 34.0669 118.579ZM50.3241 133.109L50.3241 138.579L36.352 138.579L36.352 133.109L50.3241 133.109ZM151.435 138.579L124.229 138.579L124.229 133.109L151.435 133.109L151.435 138.579ZM124.229 128.539L124.229 122.803C127.368 121.827 129.653 118.895 129.653 115.44L129.653 101.276C129.653 97.0249 126.195 93.5664 121.944 93.5664C117.693 93.5664 114.234 97.0249 114.234 101.276L114.234 115.44C114.234 118.895 116.52 121.827 119.658 122.803L119.658 128.539L105.686 128.539L105.686 92.7072C105.686 90.1881 103.782 88.108 101.338 87.8237L101.338 64.6553L146.124 64.6553L146.124 93.8797C142.927 94.8199 140.586 97.7787 140.586 101.276L140.586 115.44C140.586 118.937 142.927 121.896 146.124 122.836L146.124 128.539L124.229 128.539L124.229 128.539ZM121.944 118.579C120.213 118.579 118.804 117.171 118.804 115.44L118.804 101.276C118.804 99.545 120.213 98.1368 121.944 98.1368C123.675 98.1368 125.083 99.545 125.083 101.276L125.083 115.44C125.083 117.171 123.675 118.579 121.944 118.579ZM151.435 115.44C151.435 117.171 150.027 118.579 148.295 118.579C146.565 118.579 145.156 117.171 145.156 115.44L145.156 101.276C145.156 99.545 146.565 98.1368 148.295 98.1368C150.027 98.1368 151.435 99.545 151.435 101.276L151.435 115.44Z" fill="#19B4D2"/>
<path d="M137.805 71.766C136.542 71.766 135.52 72.7891 135.52 74.0511L135.52 82.4758C135.52 83.7378 136.542 84.7609 137.805 84.7609C139.067 84.7609 140.09 83.7378 140.09 82.4758L140.09 74.0511C140.09 72.7891 139.067 71.766 137.805 71.766Z" fill="#19B4D2"/>
<path d="M125.32 71.766C124.058 71.766 123.035 72.7891 123.035 74.0511L123.035 82.4758C123.035 83.7378 124.058 84.7609 125.32 84.7609C126.583 84.7609 127.606 83.7378 127.606 82.4758L127.606 74.0511C127.606 72.7891 126.583 71.766 125.32 71.766Z" fill="#19B4D2"/>
<path d="M112.836 71.766C111.574 71.766 110.551 72.7891 110.551 74.0511L110.551 82.4758C110.551 83.7378 111.574 84.7609 112.836 84.7609C114.098 84.7609 115.121 83.7378 115.121 82.4758L115.121 74.0511C115.121 72.7891 114.098 71.766 112.836 71.766Z" fill="#19B4D2"/>
<path d="M71.5054 101.617C71.5054 102.879 72.5285 103.902 73.7905 103.902L82.2203 103.902C83.4826 103.902 84.5055 102.879 84.5055 101.617C84.5055 100.355 83.4826 99.332 82.2203 99.332L73.7905 99.332C72.5282 99.332 71.5054 100.355 71.5054 101.617Z" fill="#19B4D2"/>
<path d="M67.0756 67.1777L88.9351 67.1777C90.1974 67.1777 91.2202 66.1546 91.2202 64.8926C91.2202 63.6306 90.1974 62.6074 88.9351 62.6074L67.0756 62.6074C65.8135 62.6074 64.7904 63.6306 64.7904 64.8926C64.7904 66.1546 65.8135 67.1777 67.0756 67.1777Z" fill="#19B4D2"/>
<path d="M67.0756 76.3363L88.9351 76.3363C90.1974 76.3363 91.2202 75.3132 91.2202 74.0512C91.2202 72.7891 90.1974 71.766 88.9351 71.766L67.0756 71.766C65.8135 71.766 64.7904 72.7891 64.7904 74.0512C64.7904 75.3132 65.8135 76.3363 67.0756 76.3363Z" fill="#19B4D2"/>
</svg>
