<svg width="167" height="166" viewBox="0 0 167 166" fill="none" xmlns="http://www.w3.org/2000/svg">
<g clip-path="url(#clip0_544_417)">
<path d="M158.85 159.484L151.753 159.484L151.753 56.4271C151.753 51.6303 147.85 47.728 143.054 47.728L127.189 47.728C122.392 47.728 118.49 51.6306 118.49 56.4271L118.49 159.484L100.468 159.484L100.468 103.12C100.468 98.3231 96.5653 94.4208 91.7684 94.4208L75.904 94.4208C71.1072 94.4208 67.2048 98.3235 67.2048 103.12L67.2048 159.484L49.1825 159.484L49.1825 130.293C49.1825 125.497 45.2798 121.594 40.4833 121.594L24.6185 121.594C19.8217 121.594 15.9193 125.497 15.9193 130.293L15.9193 159.484L8.43885 159.484C6.65157 159.484 5.20279 160.933 5.20279 162.72C5.20279 164.507 6.65157 165.956 8.43885 165.956L158.85 165.956C160.638 165.956 162.086 164.507 162.086 162.72C162.086 160.933 160.638 159.484 158.85 159.484ZM42.7097 159.484L22.3911 159.484L22.3911 130.293C22.3911 129.065 23.3901 128.066 24.6182 128.066L40.4827 128.066C41.7108 128.066 42.7097 129.065 42.7097 130.293L42.7097 159.484ZM93.9952 159.484L73.6766 159.484L73.6766 103.12C73.6766 101.892 74.6756 100.893 75.9036 100.893L91.7681 100.893C92.9959 100.893 93.9952 101.892 93.9952 103.12L93.9952 159.484ZM145.281 159.484L124.962 159.484L124.962 56.4271C124.962 55.199 125.961 54.2001 127.189 54.2001L143.054 54.2001C144.282 54.2001 145.281 55.199 145.281 56.4271L145.281 159.484Z" fill="white"/>
<path d="M151.745 3.67283C151.79 2.78971 151.48 1.89171 150.805 1.21731C150.131 0.542914 149.233 0.231929 148.35 0.277557C148.298 0.275292 148.246 0.269791 148.193 0.269791L128.615 0.269791C126.828 0.269791 125.379 1.71858 125.379 3.50585C125.379 5.29313 126.828 6.74192 128.615 6.74192L140.704 6.74192L108.713 38.733L96.6492 26.6689C96.0424 26.0622 95.2191 25.7211 94.3609 25.7211C93.5027 25.7211 92.6795 26.0622 92.0727 26.6689L33.8984 84.8436C32.6347 86.1073 32.6347 88.1564 33.8984 89.4204C34.5304 90.0518 35.3585 90.3676 36.1866 90.3676C37.0147 90.3676 37.8431 90.0518 38.4748 89.4198L94.3609 33.5333L106.425 45.5973C107.689 46.861 109.738 46.861 111.002 45.5973L145.281 11.3187L145.281 22.2598C145.281 24.0471 146.729 25.4959 148.517 25.4959C150.304 25.4959 151.753 24.0471 151.753 22.2598L151.753 3.82946C151.753 3.77671 151.747 3.72526 151.745 3.67283Z" fill="white"/>
<path d="M25.279 101.659C27.0662 101.659 28.5151 100.21 28.5151 98.4228C28.5151 96.6355 27.0662 95.1867 25.279 95.1867C23.4918 95.1867 22.0429 96.6355 22.0429 98.4228C22.0429 100.21 23.4918 101.659 25.279 101.659Z" fill="white"/>
</g>
<defs>
<clipPath id="clip0_544_417">
<rect width="165.686" height="165.686" fill="white" transform="translate(0.801483 0.269791)"/>
</clipPath>
</defs>
</svg>
