<svg width="161" height="135" viewBox="0 0 161 135" fill="none" xmlns="http://www.w3.org/2000/svg">
<path d="M135.334 5.5527C117.776 -3.83143 94.6178 -0.981435 80.0651 12.1126C65.4418 -0.97096 42.2467 -3.79049 24.7477 5.5527C9.49692 13.639 0.00518798 29.1249 0.00518798 45.9392C0.00518798 50.7537 0.805053 55.5376 2.22005 59.6588C9.68451 91.9687 57.6041 134.487 80.0651 134.487C102.477 134.487 150.361 91.9648 157.697 60.2064C159.27 55.5329 160.073 50.7603 160.073 45.9345C160.073 29.1249 150.59 13.6333 135.334 5.5527ZM146.797 57.1164C139.851 87.1856 94.5998 123.15 80.0651 123.15C63.8897 123.15 19.8171 85.4735 13.1211 56.5698C11.9251 53.0838 11.3499 49.5148 11.3499 45.9459C11.3499 33.3376 18.5164 21.6852 30.0497 15.5682C35.4202 12.6915 41.5296 11.207 47.7057 11.207C58.5763 11.207 68.8088 15.8186 75.7886 23.8791L80.1146 28.8297L84.3757 23.8791C95.2454 11.2651 115.212 7.63807 130.054 15.5682C141.587 21.6852 148.754 33.3376 148.754 45.9459C148.731 49.5082 148.152 53.078 146.797 57.1164ZM142.368 45.9392C142.368 48.9045 141.87 51.8849 140.879 54.8178C140.474 56.0109 139.393 56.7155 138.19 56.7155C137.888 56.7155 137.59 56.6946 137.283 56.5908C135.794 56.0899 135.011 54.475 135.512 52.9952C136.309 50.6404 136.736 48.2531 136.736 45.9392C136.736 37.473 131.929 29.6725 124.194 25.5979C120.526 23.6392 116.556 22.6327 112.389 22.6327C110.804 22.6327 109.571 21.3872 109.571 19.8141C109.571 18.2401 110.804 17.0003 112.389 17.0003C117.475 17.0003 122.34 18.1934 126.851 20.5959C136.417 25.6646 142.368 35.3677 142.368 45.9392Z" fill="#19B4D2"/>
</svg>
