<svg width="75" height="104" viewBox="0 0 75 104" fill="none" xmlns="http://www.w3.org/2000/svg">
<path d="M68.7573 18.5575C68.2646 17.7519 67.2177 17.5015 66.4194 17.998C65.6206 18.4945 65.3723 19.5504 65.8646 20.356C68.8051 25.1672 70.4843 30.6462 70.7729 36.2961L62.2909 36.2961C61.5016 32.9341 58.4934 30.42 54.9303 30.42C51.3664 30.42 48.3574 32.9341 47.5679 36.2961L39.0366 36.2961L39.0366 26.2196C39.0366 25.2732 38.2761 24.5059 37.3375 24.5059C35.0411 24.5059 33.173 22.6215 33.173 20.3055C33.173 17.9895 35.0411 16.1051 37.3375 16.1051C38.2761 16.1051 39.0366 15.3379 39.0366 14.3914L39.0366 4.31788C47.6051 4.74379 55.5352 8.38688 61.5198 14.6855C62.3136 15.3719 63.1144 15.389 63.922 14.7372C64.5994 14.0823 64.6225 12.9974 63.9732 12.3142C56.9534 4.9259 47.5029 0.854846 37.3609 0.848677C37.3529 0.848677 37.3454 0.847534 37.3375 0.847534C37.3298 0.847534 37.3226 0.848677 37.3149 0.848677C28.3517 0.854161 19.7227 4.11955 13.0155 10.0448C12.3096 10.6684 12.2385 11.7512 12.8569 12.463C13.4752 13.1752 14.5487 13.2467 15.2544 12.6231C20.9227 7.61549 28.1052 4.70244 35.6385 4.3204L35.6385 12.872C32.2838 13.6518 29.7749 16.6889 29.7749 20.3057C29.7749 23.9226 32.2838 26.9597 35.6385 27.7395L35.6385 36.2966L25.6101 36.2966C24.6716 36.2966 23.9111 37.0639 23.9111 38.0103L23.9111 38.0503C23.9111 40.3665 22.0421 42.2506 19.7445 42.2506C17.448 42.2506 15.58 40.3663 15.58 38.0503L15.58 38.0103C15.58 37.0639 14.8195 36.2966 13.8809 36.2966L3.89742 36.2966C4.23248 29.5814 6.48589 23.2355 10.4676 17.8495C11.0285 17.0906 10.8733 16.0169 10.1212 15.4512C9.36931 14.8857 8.30434 15.042 7.74342 15.8006C2.98377 22.2386 0.463267 29.9182 0.453979 38.0107C0.114392 52.1448 9.05692 65.7066 21.5672 71.6855C22.9904 72.3658 23.9101 73.8448 23.9101 75.4538L23.9101 78.8698C20.4221 78.8698 18.0447 80.7544 18.0447 84.132C18.0447 87.5071 20.3464 89.3972 23.9101 89.3942L23.9101 97.1927C23.9101 100.585 26.9279 103.613 30.276 103.613L44.3986 103.613C47.7469 103.613 50.7644 100.586 50.7644 97.1927L50.7644 89.3942C54.7434 89.3974 56.6312 87.2646 56.6298 84.132C56.6283 80.8659 54.5926 78.8698 50.7644 78.8698L50.7644 75.4538C50.7644 73.8446 51.6894 72.3628 53.1214 71.6785C65.9915 65.5229 73.9925 52.2806 74.2206 38.0091C74.2138 31.1203 72.3245 24.3942 68.7573 18.5575ZM23.0223 68.5876C11.8787 63.2619 4.51339 52.0564 3.89878 39.7233L12.3651 39.7233C13.1236 43.1269 16.1443 45.6774 19.7443 45.6774C23.3454 45.6774 26.3668 43.1269 27.1255 39.7233L35.638 39.7233L35.638 49.8777C35.638 50.8242 36.3985 51.5914 37.3371 51.5914C39.6335 51.5914 41.5016 53.4758 41.5016 55.7918C41.5016 58.1078 39.6335 59.9922 37.3371 59.9922C36.3985 59.9922 35.638 60.7595 35.638 61.7059L35.638 78.8689L27.3081 78.8689L27.3081 75.4529C27.3083 72.5268 25.626 69.832 23.0223 68.5876ZM44.3986 100.185L30.276 100.185C28.1166 100.185 27.202 98.2467 27.3083 96.5293L47.3661 96.5293C47.3699 98.3573 46.7954 100.185 44.3986 100.185ZM51.4101 85.9663L40.9076 85.9663C39.969 85.9663 39.2085 86.7336 39.2085 87.68C39.2085 87.6839 39.209 87.6876 39.209 87.6915C39.209 87.6953 39.2085 87.699 39.2085 87.7029C39.2085 88.6493 39.969 89.4166 40.9076 89.4166L47.3663 89.4166L47.3663 93.1019L27.3085 93.1019L27.3085 89.4166L33.5044 89.4166C34.443 89.4166 35.2035 88.6493 35.2035 87.7029C35.2035 87.699 35.203 87.6953 35.203 87.6915C35.203 87.6876 35.2035 87.6839 35.2035 87.68C35.2035 86.7336 34.443 85.9663 33.5044 85.9663L23.2647 85.9663C20.5734 86.0075 20.498 82.2968 23.2647 82.2968L51.4103 82.2968C53.7616 82.2968 54.1014 85.9693 51.4101 85.9663ZM51.6656 68.5808C49.0538 69.829 47.3661 72.5269 47.3661 75.4534L47.3661 78.8694L39.0361 78.8694L39.0361 63.2258C42.3908 62.446 44.8997 59.4089 44.8997 55.792C44.8997 52.1752 42.3908 49.1381 39.0361 48.3583L39.0361 39.7233L49.0645 39.7233C49.9985 39.7233 50.7576 38.9626 50.7635 38.0206C50.778 35.7194 52.6472 33.8471 54.9301 33.8471C57.2118 33.8471 59.0801 35.7194 59.0949 38.0206C59.1007 38.9626 59.8599 39.7233 60.7939 39.7233L70.7756 39.7233C70.1603 52.0525 62.8004 63.2553 51.6656 68.5808Z" fill="#19B4D2"/>
</svg>
