<svg width="106" height="106" viewBox="0 0 106 106" fill="none" xmlns="http://www.w3.org/2000/svg">
<path d="M2.06779 51.5795L10.1054 51.5795L10.1054 31.0117C10.1054 30.1633 10.7955 29.4755 11.6472 29.4755C12.4989 29.4755 13.189 30.1633 13.189 31.0117L13.189 51.5795L16.4908 51.5795L16.4908 3.74993L13.189 3.74993L13.189 24.3177C13.189 25.1661 12.4989 25.8539 11.6472 25.8539C10.7955 25.8539 10.1054 25.1661 10.1054 24.3177L10.1054 2.21365C10.1054 1.36521 10.7955 0.677368 11.6472 0.677368L18.0326 0.677368C18.8843 0.677368 19.5744 1.36521 19.5744 2.21365L19.5744 7.04044L40.3817 7.04044C41.2335 7.04044 41.9236 7.72828 41.9236 8.57672L41.9236 13.4039L59.5381 13.4039C60.9229 13.6897 61.3505 14.4857 60.8209 15.7923L55.006 24.4836L60.8209 33.1748C61.3505 34.4815 60.9229 35.2775 59.5381 35.5632L34.0675 35.5632C33.2158 35.5632 32.5257 34.8754 32.5257 34.027L32.5257 29.2012L19.5744 29.2012L19.5744 51.5795L27.6104 51.5795C28.4621 51.5795 29.1522 52.2673 29.1522 53.1158L29.1522 64.304L37.0214 64.304C37.8731 64.304 38.5632 64.9918 38.5632 65.8403C38.5632 66.6887 37.8731 67.3765 37.0214 67.3765L29.1522 67.3765L29.1522 102.482L51.6111 102.482L51.6111 67.3765L43.7417 67.3765C42.89 67.3765 42.1999 66.6887 42.1999 65.8403C42.1999 64.9918 42.89 64.304 43.7417 64.304L53.1529 64.304C54.0046 64.304 54.6947 64.9918 54.6947 65.8403L54.6947 77.0303L78.6955 77.0303C79.5472 77.0303 80.2373 77.7182 80.2373 78.5666L80.2373 89.755L89.0629 89.755C89.9146 89.755 90.6047 90.4429 90.6047 91.2913C90.6047 92.1398 89.9146 92.8276 89.0629 92.8276L80.2375 92.8276L80.2375 102.482L102.697 102.482L102.697 92.8276L95.7832 92.8276C94.9315 92.8276 94.2413 92.1398 94.2413 91.2913C94.2413 90.4429 94.9315 89.755 95.7832 89.755L104.238 89.755C105.09 89.755 105.78 90.4429 105.78 91.2913L105.78 104.018C105.78 104.866 105.09 105.554 104.238 105.554L2.06779 105.554C1.21609 105.554 0.525966 104.866 0.525966 104.017L0.525966 53.1158C0.525966 52.2673 1.21608 51.5795 2.06779 51.5795ZM35.6091 32.4907L56.6572 32.4907L51.8701 25.3357C51.5248 24.8197 51.5248 24.1474 51.8701 23.6315L56.6572 16.4765L41.9236 16.4765L41.9236 27.6649C41.9236 28.5133 41.2335 29.2012 40.3817 29.2012L35.6091 29.2012L35.6091 32.4907ZM38.8399 26.1286L38.8399 10.113L19.5742 10.113L19.5742 26.1286L38.8399 26.1286ZM77.1537 80.1029L54.6947 80.1029L54.6947 102.481L77.1537 102.481L77.1537 80.1029ZM3.6096 102.481L26.0683 102.481L26.0685 54.652L3.6096 54.652L3.6096 102.481Z" fill="#19B4D2"/>
</svg>
