<svg width="196" height="196" viewBox="0 0 196 196" fill="none" xmlns="http://www.w3.org/2000/svg">
<g clip-path="url(#clip0_506_296)">
<path d="M103.624 195.227L91.3858 195.227C81.4877 195.227 73.4344 187.174 73.4344 177.276L73.4344 173.136C69.2263 171.791 65.1378 170.094 61.21 168.062L58.2758 170.996C51.1694 178.111 39.7859 177.902 32.8858 170.993L24.2361 162.344C17.3239 155.439 17.1251 144.06 24.2384 136.954L27.1703 134.022C25.1376 130.094 23.4409 126.006 22.0961 121.798L17.9562 121.798C8.05838 121.798 0.00511168 113.745 0.00511168 103.846L0.00511168 91.6079C0.00511168 81.7098 8.05838 73.6569 17.9565 73.6569L22.0965 73.6569C23.4413 69.4484 25.138 65.3602 27.1707 61.4324L24.2365 58.4987C17.1274 51.3972 17.3235 40.0163 24.2388 33.1087L32.8893 24.4586C39.8053 17.5331 51.1861 17.3602 58.2789 24.4609L61.2104 27.3924C65.1382 25.3601 69.2267 23.663 73.4348 22.3182L73.4348 18.1782C73.4348 8.28009 81.4877 0.227196 91.3862 0.227196L103.624 0.227196C113.523 0.227196 121.575 8.28009 121.575 18.1782L121.575 22.3186C125.784 23.663 129.872 25.3601 133.8 27.3928L136.734 24.4586C143.84 17.3434 155.224 17.5521 162.124 24.4613L170.774 33.1106C177.686 40.0152 177.885 51.3949 170.771 58.5006L167.84 61.4324C169.872 65.3602 171.569 69.448 172.914 73.6569L177.054 73.6569C186.952 73.6569 195.005 81.7098 195.005 91.6079L195.005 103.846C195.005 113.745 186.952 121.798 177.054 121.798L172.914 121.798C171.569 126.006 169.872 130.094 167.84 134.022L170.774 136.956C177.883 144.058 177.687 155.438 170.771 162.346L162.121 170.996C155.205 177.922 143.824 178.095 136.731 170.994L133.8 168.062C129.872 170.095 125.784 171.792 121.575 173.137L121.575 177.277C121.575 187.174 113.523 195.227 103.624 195.227ZM63.12 156.063C68.5766 159.29 74.4494 161.728 80.5751 163.309C83.098 163.96 84.8606 166.235 84.8606 168.841L84.8606 177.276C84.8606 180.874 87.7882 183.801 91.3862 183.801L103.624 183.801C107.222 183.801 110.15 180.874 110.15 177.276L110.15 168.841C110.15 166.235 111.913 163.96 114.435 163.309C120.561 161.728 126.434 159.29 131.891 156.063C134.136 154.736 136.994 155.097 138.839 156.941L144.814 162.917C147.39 165.496 151.527 165.436 154.039 162.919L162.695 154.264C165.202 151.76 165.286 147.622 162.698 145.038L156.72 139.06C154.876 137.216 154.515 134.357 155.842 132.112C159.069 126.656 161.507 120.783 163.088 114.657C163.739 112.134 166.014 110.372 168.619 110.372L177.054 110.372C180.652 110.372 183.58 107.445 183.58 103.847L183.58 91.6083C183.58 88.0103 180.652 85.083 177.054 85.083L168.619 85.083C166.014 85.083 163.739 83.3204 163.088 80.798C161.507 74.6719 159.069 68.799 155.842 63.3428C154.515 61.098 154.876 58.2393 156.72 56.3952L162.695 50.4199C165.278 47.8399 165.211 43.7038 162.698 41.1936L154.043 32.5385C151.534 30.0264 147.396 29.9529 144.816 32.5363L138.839 38.5138C136.995 40.3583 134.135 40.7194 131.891 39.3917C126.434 36.1647 120.562 33.7268 114.436 32.1459C111.913 31.495 110.15 29.2197 110.15 26.6143L110.15 18.1782C110.15 14.5803 107.223 11.653 103.625 11.653L91.3866 11.653C87.7886 11.653 84.861 14.5803 84.861 18.1782L84.861 26.6135C84.861 29.219 83.0983 31.4942 80.5755 32.1451C74.4498 33.7261 68.5769 36.1639 63.1204 39.391C60.8748 40.7183 58.0165 40.3572 56.1724 38.5131L50.1974 32.5378C47.6213 29.9586 43.484 30.0184 40.9715 32.5351L32.3157 41.1905C29.8089 43.6943 29.7251 47.8316 32.3134 50.4168L38.291 56.3944C40.1351 58.2386 40.4962 61.0973 39.1689 63.3421C35.9419 68.7983 33.5044 74.6711 31.9234 80.7972C31.2721 83.32 28.9969 85.0823 26.3918 85.0823L17.9565 85.0823C14.3586 85.0827 11.4309 88.0099 11.4309 91.6079L11.4309 103.846C11.4309 107.444 14.3586 110.372 17.9565 110.372L26.3914 110.372C28.9969 110.372 31.2718 112.134 31.923 114.657C33.504 120.783 35.9419 126.656 39.1685 132.112C40.4958 134.357 40.1347 137.215 38.2906 139.06L32.3153 145.035C29.7323 147.615 29.7997 151.751 32.313 154.261L40.9681 162.916C43.4768 165.428 47.6144 165.502 50.1944 162.919L56.1716 156.941C57.5305 155.582 60.3576 154.43 63.12 156.063Z" fill="#19B4D2"/>
<path d="M97.5051 140.155C74.11 140.155 55.0773 121.122 55.0773 97.7272C55.0773 74.3325 74.11 55.2995 97.5051 55.2995C120.9 55.2995 139.933 74.3325 139.933 97.7272C139.933 121.122 120.9 140.155 97.5051 140.155ZM97.5051 66.7252C80.4102 66.7252 66.5031 80.6327 66.5031 97.7272C66.5031 114.822 80.4106 128.729 97.5051 128.729C114.6 128.729 128.507 114.822 128.507 97.7272C128.507 80.6327 114.6 66.7252 97.5051 66.7252Z" fill="#19B4D2"/>
</g>
<defs>
<clipPath id="clip0_506_296">
<rect width="195" height="195" fill="white" transform="translate(0.00511169 0.227196)"/>
</clipPath>
</defs>
</svg>
