<svg width="119" height="118" viewBox="0 0 119 118" fill="none" xmlns="http://www.w3.org/2000/svg">
<g clip-path="url(#clip0_506_434)">
<path d="M104.28 42.1845C106.076 39.1497 105.446 35.3818 102.747 33.0212C101.617 32.0321 101.101 30.5298 101.402 29.1005C102.12 25.6888 100.291 22.2895 96.9544 20.8342C95.5564 20.2246 94.5759 18.9465 94.3957 17.4991C93.9652 14.0441 91.1166 11.3463 87.4683 10.939C85.9398 10.7684 84.5904 9.83969 83.9465 8.51577C82.4097 5.35591 78.8197 3.6243 75.2177 4.30393C73.7079 4.58897 72.1218 4.10052 71.0776 3.02999C68.5851 0.474475 64.6056 -0.12201 61.4014 1.57861C60.0587 2.29121 58.3908 2.29143 57.0483 1.57861C53.8436 -0.12201 49.865 0.474475 47.372 3.02999C46.3278 4.10052 44.7415 4.58963 43.2319 4.30393C39.629 3.62451 36.0399 5.35591 34.5029 8.51577C33.8592 9.83969 32.5096 10.7681 30.9813 10.9388C27.333 11.3463 24.4842 14.0439 24.0539 17.4991C23.8737 18.9465 22.893 20.2244 21.4952 20.834C18.1585 22.2893 16.3293 25.6885 17.0477 29.1003C17.3487 30.5298 16.8331 32.0321 15.7024 33.021C13.0039 35.3814 12.3735 39.1497 14.1698 42.1843C14.9225 43.4558 14.9225 45.0351 14.1698 46.3067C12.3735 49.3415 13.0036 53.1094 15.7024 55.47C16.8331 56.4591 17.3487 57.9611 17.0477 59.3905C16.3295 62.8022 18.1585 66.2015 21.4952 67.6568C22.8933 68.2666 23.8737 69.5447 24.0539 70.9921C24.4118 73.865 26.4427 76.2131 29.2146 77.1575L17.029 100.798C16.7605 101.319 16.8029 101.935 17.1398 102.418C17.4768 102.902 18.0571 103.184 18.6695 103.151L30.3623 102.591L37.0897 111.665C37.4149 112.104 37.944 112.362 38.5041 112.362C38.5495 112.362 38.5951 112.36 38.6407 112.357C39.2506 112.311 39.7894 111.963 40.0577 111.443L52.2326 87.8214C53.8519 88.0062 55.5362 87.7157 57.048 86.913C58.3905 86.2004 60.0582 86.2002 61.4011 86.913C62.6217 87.5608 63.954 87.8755 65.2744 87.8753C65.621 87.8753 65.9663 87.8513 66.3087 87.8083L78.4906 111.443C78.7589 111.963 79.2977 112.311 79.9075 112.357C79.9532 112.36 79.9988 112.362 80.0442 112.362C80.6042 112.362 81.1334 112.104 81.4586 111.665L88.186 102.591L99.8788 103.151C100.488 103.181 101.071 102.902 101.408 102.418C101.746 101.935 101.788 101.319 101.519 100.798L89.3192 77.1283C92.0477 76.1654 94.0413 73.8359 94.3955 70.9919C94.5757 69.5444 95.5564 68.2666 96.9542 67.6568C100.291 66.2015 102.12 62.8022 101.402 59.3905C101.101 57.9609 101.616 56.4589 102.747 55.4698C105.446 53.1094 106.076 49.341 104.28 46.3064C103.527 45.0355 103.527 43.4558 104.28 42.1845ZM38.2358 107.514L32.643 99.9699C32.3017 99.5097 31.7361 99.2456 31.1411 99.2757L21.4203 99.7414L32.6018 78.0478C33.4248 78.478 34.101 79.1497 34.5027 79.9756C35.3238 81.6644 36.7318 82.9443 38.4142 83.6674L34.7182 90.838C34.2994 91.6504 34.6555 92.6303 35.5133 93.0269C35.7573 93.1397 36.0157 93.1932 36.2701 93.1932C36.9099 93.1932 37.525 92.8553 37.8249 92.2739L41.9194 84.3297C42.3543 84.3167 42.7929 84.2704 43.2317 84.1877C44.7415 83.9022 46.3276 84.3909 47.3718 85.4616C47.8505 85.9525 48.3845 86.3704 48.957 86.7142L38.2358 107.514ZM97.1277 99.7414L87.4068 99.2759C86.8126 99.2445 86.2461 99.5097 85.9048 99.9702L80.312 107.514L69.5669 86.667C70.1108 86.332 70.6194 85.9306 71.0771 85.4614C72.1214 84.3906 73.7077 83.9026 75.2173 84.1874C75.69 84.2767 76.1624 84.3232 76.63 84.3317L80.7236 92.2739C81.0232 92.8551 81.6381 93.193 82.2781 93.193C82.5326 93.193 82.7912 93.1395 83.0352 93.0267C83.893 92.6301 84.2491 91.6502 83.8303 90.8378L80.1161 83.6316C81.7626 82.9026 83.1385 81.6367 83.9467 79.9754C84.3611 79.1233 85.0684 78.4367 85.9269 78.0089L97.1277 99.7414ZM100.402 53.0653C98.3932 54.8222 97.4778 57.4912 98.0122 60.0306C98.4165 61.9512 97.387 63.8644 95.5089 64.6835C93.0254 65.7667 91.2835 68.037 90.9631 70.6086C90.7209 72.5535 89.1173 74.0719 87.0638 74.3013C84.3484 74.6046 81.9509 76.2542 80.8071 78.6061C79.9421 80.3848 77.9216 81.3602 75.8935 80.9767C73.2124 80.471 70.3933 81.3377 68.5383 83.24C67.1352 84.6787 64.8955 85.0146 63.0916 84.0571C61.8987 83.424 60.562 83.1073 59.2248 83.1073C57.8879 83.1073 56.5505 83.424 55.358 84.0569C53.5541 85.0144 51.3144 84.6785 49.9113 83.24C48.0561 81.3379 45.2374 80.4708 42.5562 80.9767C40.5283 81.3598 38.5078 80.3846 37.6428 78.6061C36.499 76.2542 34.1017 74.6046 31.386 74.3013C29.3323 74.0719 27.729 72.5533 27.4867 70.6086C27.1664 68.0372 25.4245 65.7667 22.941 64.6833C21.0627 63.8642 20.0334 61.951 20.4376 60.0304C20.9721 57.491 20.0564 54.822 18.0479 53.0651C16.5289 51.7363 16.174 49.6154 17.185 47.9071C18.5222 45.6484 18.5222 42.8421 17.185 40.5832C16.1737 38.8749 16.5286 36.7542 18.0477 35.4252C20.0564 33.6683 20.9719 30.9993 20.4376 28.4599C20.0334 26.5395 21.0629 24.6261 22.941 23.807C25.4245 22.7238 27.1664 20.4535 27.4867 17.8819C27.729 15.9368 29.3326 14.4186 31.386 14.1892C34.1014 13.8859 36.4992 12.2363 37.6428 9.88444C38.5078 8.10568 40.5278 7.13096 42.5564 7.51378C45.2391 8.02012 48.0563 7.15257 49.9116 5.2505C51.3147 3.81199 53.5546 3.47567 55.3582 4.43358C57.7434 5.69966 60.7067 5.69966 63.0918 4.43358C64.8957 3.47567 67.1352 3.81178 68.5385 5.2505C70.3938 7.15257 73.2117 8.0199 75.8937 7.51378C77.9225 7.13052 79.9419 8.10611 80.8071 9.88444C81.9509 12.2363 84.3482 13.8859 87.0638 14.1892C89.1175 14.4186 90.7209 15.9372 90.9631 17.8819C91.2835 20.4533 93.0254 22.724 95.5089 23.807C97.3872 24.6261 98.4165 26.5395 98.0122 28.4599C97.4778 30.9993 98.3934 33.6683 100.402 35.4252C101.921 36.754 102.276 38.8749 101.265 40.5832C99.9279 42.8425 99.9279 45.6488 101.265 47.9073C102.276 49.6156 101.921 51.7366 100.402 53.0653Z" fill="#19B4D2"/>
<path d="M86.8167 38.9708C86.8167 36.0051 84.3839 33.5929 81.3933 33.5929L69.6237 33.5929C70.6168 31.7516 71.9074 29.0633 72.9681 25.863C73.7782 23.4199 72.417 20.7644 69.9348 19.944L69.8284 19.9088C67.5536 19.1563 65.0512 20.2221 64.0074 22.3871C62.4812 25.5545 59.0836 31.1709 53.3406 33.5932L52.2129 33.5932C51.2182 32.4714 49.7621 31.7614 48.1407 31.7614L40.7514 31.7614C37.7611 31.7614 35.3282 34.1736 35.3282 37.1386L35.3282 62.7824C35.3282 65.7474 37.7611 68.1596 40.7514 68.1596L48.1407 68.1596C49.7621 68.1596 51.2182 67.4496 52.2129 66.3278L75.8515 66.3278C78.8418 66.3278 81.2746 63.9156 81.2746 60.9507C81.2746 59.9525 80.999 59.017 80.5192 58.2154C82.079 57.27 83.1218 55.5655 83.1218 53.624C83.1218 52.6259 82.8462 51.6904 82.3664 50.8887C83.9262 49.9434 84.9691 48.2389 84.9691 46.2974C84.9691 45.2993 84.6934 44.3637 84.2136 43.5621C85.7736 42.6167 86.8167 40.912 86.8167 38.9708ZM81.3933 40.9196L75.8512 40.9196C74.8966 40.9196 74.1227 41.6869 74.1227 42.6334C74.1227 43.5799 74.8966 44.3473 75.8512 44.3473L79.5459 44.3473C80.6302 44.3473 81.5123 45.222 81.5123 46.297C81.5123 47.3719 80.63 48.2466 79.5459 48.2466L74.0038 48.2466C73.0492 48.2466 72.2753 49.014 72.2753 49.9605C72.2753 50.907 73.0492 51.6744 74.0038 51.6744L77.6984 51.6744C78.7828 51.6744 79.6648 52.5491 79.6648 53.624C79.6648 54.699 78.7826 55.5737 77.6984 55.5737L72.1566 55.5737C71.202 55.5737 70.428 56.3411 70.428 57.2876C70.428 58.2341 71.202 59.0014 72.1566 59.0014L75.8512 59.0014C76.9356 59.0014 77.8176 59.8762 77.8176 60.9511C77.8176 62.0261 76.9353 62.9008 75.8512 62.9008L53.5639 62.9008L53.5639 46.2976C53.5639 45.3511 52.79 44.5838 51.8354 44.5838C50.8808 44.5838 50.1068 45.3511 50.1068 46.2976L50.1068 62.7829C50.1068 63.8581 49.2246 64.7326 48.1405 64.7326L40.7512 64.7326C39.6668 64.7326 38.7848 63.8578 38.7848 62.7829L38.7848 37.1383C38.7848 36.0632 39.667 35.1887 40.7512 35.1887L48.1405 35.1887C49.2248 35.1887 50.1068 36.0634 50.1068 37.1383L50.1068 38.9699C50.1068 39.9164 50.8808 40.6837 51.8354 40.6837C52.79 40.6837 53.5639 39.9164 53.5639 38.9699L53.5639 37.0204L53.6828 37.0204C53.9027 37.0204 54.1205 36.9788 54.3249 36.8977C61.3402 34.1153 65.357 27.5375 67.1266 23.8644C67.4195 23.2563 68.1116 22.9545 68.7346 23.1599L68.8413 23.1953C69.5235 23.4206 69.9016 24.1372 69.6843 24.7929C67.8456 30.3398 65.2024 34.3178 65.1766 34.3562C64.8228 34.882 64.7901 35.5582 65.0906 36.1155C65.3914 36.6726 65.9772 37.0207 66.6147 37.0207L81.3938 37.0207C82.4781 37.0207 83.3602 37.8954 83.3602 38.9703C83.3602 40.0453 82.4777 40.9196 81.3933 40.9196Z" fill="#19B4D2"/>
<path d="M44.4749 60.8335C45.4296 60.8335 46.2034 60.0662 46.2034 59.1196C46.2034 58.1731 45.4296 57.4058 44.4749 57.4058C43.5203 57.4058 42.7464 58.1731 42.7464 59.1196C42.7464 60.0662 43.5203 60.8335 44.4749 60.8335Z" fill="#19B4D2"/>
</g>
<defs>
<clipPath id="clip0_506_434">
<rect width="118" height="117" fill="white" transform="translate(0.224716 0.616089)"/>
</clipPath>
</defs>
</svg>
